<?xml version="1.0" standalone="no"?>
<!DOCTYPE svg PUBLIC "-//W3C//DTD SVG 20010904//EN"
 "http://www.w3.org/TR/2001/REC-SVG-20010904/DTD/svg10.dtd">
<svg version="1.0" xmlns="http://www.w3.org/2000/svg"
 width="1173.000000pt" height="1173.000000pt" viewBox="0 0 1173.000000 1173.000000"
 preserveAspectRatio="xMidYMid meet">
<metadata>
Created by potrace 1.15, written by Peter Selinger 2001-2017
</metadata>
<g transform="translate(0.000000,1173.000000) scale(0.100000,-0.100000)"
fill="#000000" stroke="none">
<path d="M3849 11002 c-8 -9 -31 -37 -50 -61 -19 -25 -41 -52 -49 -61 -8 -9
-26 -31 -40 -50 -14 -18 -59 -75 -100 -125 -41 -50 -86 -107 -100 -125 -14
-19 -37 -48 -52 -66 -16 -17 -28 -34 -28 -37 0 -7 119 33 145 49 11 6 74 31
140 54 66 24 125 47 131 52 6 4 63 26 125 48 63 22 125 46 139 54 14 7 79 33
145 56 66 24 122 46 125 50 3 4 42 20 88 36 77 27 99 40 70 41 -14 1 -80 11
-118 18 -14 3 -45 7 -70 10 -25 3 -56 7 -70 10 -35 8 -90 17 -125 20 -16 2
-31 4 -32 5 -5 4 -15 6 -78 14 -32 4 -68 10 -80 12 -70 14 -101 13 -116 -4z"/>
<path d="M5545 10747 c-16 -6 -32 -13 -35 -17 -3 -4 -61 -27 -130 -51 -69 -23
-127 -46 -130 -50 -3 -4 -66 -28 -140 -55 -74 -26 -137 -51 -140 -55 -3 -3
-61 -26 -130 -50 -69 -23 -127 -46 -130 -50 -3 -5 -66 -29 -140 -55 -74 -26
-137 -51 -140 -55 -3 -3 -65 -27 -137 -52 -73 -26 -143 -53 -155 -61 -13 -7
-72 -31 -133 -52 -60 -21 -112 -41 -115 -44 -3 -4 -66 -28 -140 -55 -74 -26
-143 -53 -155 -60 -11 -7 -69 -30 -130 -51 -60 -21 -112 -41 -115 -45 -3 -3
-66 -28 -140 -54 -74 -27 -144 -54 -155 -60 -11 -7 -69 -30 -130 -51 -60 -21
-111 -42 -113 -46 -2 -4 -10 -8 -17 -8 -12 0 -60 -53 -131 -143 -22 -29 -24
-31 -174 -217 -121 -150 -117 -145 -157 -196 l-32 -40 96 33 c53 19 102 38
108 43 6 5 63 28 126 50 62 23 137 51 164 64 28 13 88 36 135 51 47 15 99 35
115 45 17 9 80 34 140 55 61 22 112 42 115 46 3 3 65 27 137 52 73 26 143 53
155 60 13 8 73 32 133 53 61 21 112 41 115 45 3 3 68 28 145 55 77 26 141 51
143 55 2 4 65 29 140 55 75 26 139 51 142 55 3 4 59 26 124 49 66 23 129 48
140 55 12 7 77 32 146 56 69 23 127 46 130 50 3 4 59 26 124 49 66 23 129 48
140 55 12 7 77 32 146 56 69 23 127 46 130 50 3 3 63 27 134 53 71 25 134 50
140 55 6 4 67 28 136 52 69 23 126 46 128 49 1 4 65 29 142 56 77 27 140 54
140 60 0 6 -6 11 -12 11 -7 0 -31 3 -53 7 -66 11 -88 14 -135 20 -25 3 -56 8
-70 11 -14 3 -45 8 -70 11 -55 7 -67 9 -105 17 -16 4 -48 9 -70 12 -23 3 -52
7 -65 10 -108 21 -150 23 -185 12z"/>
<path d="M7270 10456 c-47 -16 -87 -33 -90 -37 -3 -3 -66 -28 -140 -54 -74
-27 -140 -52 -147 -57 -6 -5 -69 -29 -139 -54 -71 -25 -133 -49 -139 -54 -6
-5 -63 -27 -126 -50 -62 -22 -125 -46 -139 -54 -14 -8 -79 -33 -144 -55 -66
-23 -125 -46 -131 -51 -6 -5 -63 -27 -126 -50 -62 -22 -125 -46 -139 -54 -14
-8 -79 -33 -144 -55 -66 -23 -125 -46 -131 -51 -6 -5 -63 -28 -126 -50 -62
-23 -136 -51 -164 -64 -27 -13 -88 -36 -135 -51 -47 -15 -98 -35 -115 -45 -16
-9 -86 -37 -155 -61 -69 -23 -127 -46 -130 -50 -3 -4 -59 -26 -124 -49 -66
-23 -129 -48 -140 -55 -12 -7 -77 -32 -146 -56 -69 -24 -127 -46 -130 -50 -3
-4 -59 -26 -124 -49 -66 -23 -129 -48 -140 -55 -12 -7 -77 -32 -146 -56 -69
-24 -127 -46 -130 -50 -3 -3 -63 -27 -134 -53 -71 -25 -134 -50 -140 -55 -6
-5 -67 -28 -136 -52 -69 -23 -127 -46 -130 -50 -3 -3 -66 -28 -140 -55 -74
-26 -137 -51 -140 -55 -3 -3 -61 -26 -130 -50 -69 -23 -127 -46 -130 -50 -3
-3 -66 -28 -140 -55 -74 -26 -137 -51 -140 -55 -3 -3 -61 -26 -130 -50 -69
-23 -127 -46 -130 -50 -3 -3 -63 -28 -135 -53 -220 -80 -207 -70 -348 -246 -7
-8 -30 -37 -52 -65 -22 -27 -45 -56 -52 -65 -27 -35 -86 -108 -121 -149 -20
-24 -44 -54 -52 -65 -8 -12 -25 -32 -37 -46 -13 -14 -23 -27 -23 -31 0 -7 220
68 235 81 6 5 70 30 140 55 71 25 134 50 140 54 5 5 64 28 130 51 66 24 129
49 140 55 11 7 76 32 145 56 69 23 127 46 130 50 3 3 59 26 125 49 66 24 129
49 140 56 11 6 76 31 145 55 69 24 127 46 130 50 3 3 59 26 125 50 66 23 129
48 140 55 11 7 76 31 145 55 69 24 127 46 130 50 3 4 66 28 140 55 74 26 137
51 140 55 3 3 61 26 130 50 69 23 127 46 130 50 3 4 66 28 140 55 74 26 137
51 140 55 3 3 61 26 130 50 69 23 127 46 130 50 3 4 66 28 140 55 74 26 137
51 140 55 3 3 65 27 137 52 73 26 143 53 155 61 13 7 73 31 133 52 61 21 112
41 115 44 3 4 66 28 140 55 74 26 140 51 146 56 5 4 62 26 125 49 62 22 125
46 139 54 14 8 79 33 145 56 66 23 125 46 131 51 6 5 63 27 125 49 63 22 125
46 139 54 14 7 79 33 145 56 66 24 125 47 132 52 6 5 69 29 139 54 71 25 133
49 139 53 5 5 64 28 130 51 66 24 129 49 140 56 11 6 76 31 145 55 69 24 127
46 130 50 3 3 59 26 125 50 66 23 129 48 140 55 11 7 76 31 145 55 69 24 127
46 130 50 3 3 37 18 75 32 39 14 63 26 55 27 -8 1 -22 3 -30 5 -25 5 -103 17
-135 20 -16 2 -46 6 -65 10 -48 8 -77 13 -130 19 -25 3 -56 9 -70 12 -14 3
-41 7 -60 9 -19 2 -35 4 -35 5 0 3 -41 10 -160 26 -22 3 -42 7 -45 8 -3 1 -43
-11 -90 -28z"/>
<path d="M9094 10206 c-10 -7 -73 -33 -139 -56 -66 -24 -129 -49 -140 -56 -11
-6 -76 -31 -145 -55 -69 -24 -127 -46 -130 -50 -3 -3 -59 -26 -125 -50 -66
-23 -129 -48 -140 -55 -11 -7 -76 -31 -145 -55 -69 -24 -127 -46 -130 -50 -3
-4 -57 -26 -120 -48 -63 -22 -126 -47 -140 -55 -14 -7 -81 -33 -150 -57 -69
-23 -127 -46 -130 -50 -3 -5 -66 -29 -140 -55 -74 -26 -137 -51 -140 -55 -3
-3 -61 -26 -130 -50 -69 -24 -126 -46 -128 -50 -2 -4 -65 -29 -140 -55 -75
-26 -139 -51 -142 -55 -3 -3 -61 -26 -130 -50 -69 -23 -127 -46 -130 -50 -5
-7 -254 -99 -269 -99 -5 0 -11 -4 -13 -9 -1 -5 -63 -30 -137 -56 -74 -25 -143
-52 -155 -60 -12 -7 -70 -30 -131 -51 -60 -21 -112 -41 -115 -45 -3 -3 -66
-28 -140 -54 -74 -26 -140 -52 -146 -56 -6 -5 -63 -27 -125 -49 -63 -22 -126
-47 -140 -55 -14 -8 -80 -33 -145 -56 -65 -23 -124 -45 -130 -50 -6 -5 -63
-27 -125 -49 -63 -22 -126 -47 -140 -55 -14 -8 -80 -33 -145 -56 -65 -23 -121
-45 -124 -49 -3 -4 -66 -28 -140 -54 -74 -26 -139 -51 -145 -56 -6 -5 -65 -28
-130 -51 -66 -23 -122 -45 -125 -49 -3 -4 -68 -29 -145 -55 -77 -27 -142 -52
-145 -56 -3 -4 -57 -26 -120 -48 -63 -22 -126 -47 -140 -55 -14 -7 -81 -33
-150 -57 -69 -23 -127 -46 -130 -50 -3 -4 -63 -28 -134 -54 -71 -25 -134 -49
-140 -54 -6 -5 -67 -28 -136 -52 -69 -24 -126 -46 -128 -50 -2 -4 -65 -29
-140 -55 -75 -26 -139 -51 -142 -55 -3 -4 -58 -25 -122 -48 -64 -22 -127 -46
-140 -54 -13 -8 -79 -34 -148 -58 -69 -23 -127 -46 -130 -50 -3 -4 -59 -26
-125 -49 -66 -23 -129 -47 -140 -54 -11 -7 -76 -32 -145 -56 -69 -24 -127 -47
-130 -51 -3 -3 -66 -28 -140 -55 -74 -26 -144 -53 -155 -60 -11 -6 -37 -17
-57 -24 -27 -8 -54 -32 -101 -88 -35 -42 -66 -82 -70 -89 -4 -6 12 -58 34
-115 23 -56 45 -113 50 -125 l8 -22 63 21 c35 12 65 24 68 28 3 4 63 29 135
54 71 26 134 51 140 56 5 4 66 27 135 51 69 23 127 46 130 50 3 4 66 28 140
55 74 26 137 51 140 55 3 3 61 26 130 50 69 23 127 46 130 50 3 5 66 29 140
55 74 26 137 51 140 54 6 8 233 90 249 90 6 0 11 4 11 9 0 5 62 30 138 57 75
26 139 51 142 54 3 4 66 28 140 55 74 26 137 51 140 55 3 4 61 26 130 50 69
24 127 47 130 51 3 3 66 28 140 54 74 27 144 54 155 60 11 7 70 30 130 51 61
21 112 41 115 45 3 3 66 28 140 54 74 27 140 52 147 57 6 5 69 29 139 54 71
25 133 49 139 54 6 5 62 27 125 50 63 22 133 49 155 60 22 10 87 35 144 55 58
19 110 40 116 45 6 5 62 27 124 49 62 22 136 51 165 64 28 14 96 39 151 57 55
18 102 37 105 41 3 4 57 26 120 49 63 23 138 51 165 64 28 13 88 36 135 51 47
15 99 35 115 45 17 9 86 37 155 61 69 23 127 46 130 50 3 4 58 25 122 48 64
22 127 46 140 54 13 8 79 34 148 58 69 23 127 46 130 50 3 4 59 26 124 49 66
23 129 48 140 55 12 7 77 32 146 56 69 23 127 46 130 50 3 4 59 26 125 49 66
23 129 47 140 54 11 7 76 32 145 56 69 24 127 47 130 51 3 3 66 28 140 54 74
27 137 51 140 55 3 4 61 26 130 50 69 24 127 47 130 51 3 3 66 28 140 55 74
26 137 51 140 54 3 4 61 26 130 50 69 24 127 47 130 51 3 3 59 26 125 49 66
24 147 55 180 70 33 15 98 40 145 55 47 16 105 39 129 52 24 12 50 23 57 23
21 0 17 15 -30 135 -47 120 -56 129 -136 140 -25 3 -63 8 -85 11 -22 3 -42 7
-46 9 -3 2 -14 -2 -25 -9z"/>
<path d="M9495 9402 c-55 -20 -102 -39 -105 -43 -3 -3 -59 -26 -125 -49 -66
-24 -147 -55 -180 -70 -33 -15 -98 -40 -145 -55 -47 -15 -87 -31 -90 -35 -3
-4 -66 -29 -140 -56 -74 -26 -137 -51 -140 -55 -3 -3 -65 -27 -137 -52 -73
-26 -143 -53 -155 -60 -13 -8 -72 -32 -133 -53 -60 -21 -112 -41 -115 -45 -3
-3 -65 -27 -137 -52 -73 -26 -143 -53 -155 -60 -13 -8 -72 -32 -133 -53 -60
-21 -112 -41 -115 -45 -3 -3 -65 -27 -137 -52 -73 -26 -143 -53 -155 -60 -13
-8 -72 -32 -133 -53 -60 -21 -112 -41 -115 -44 -3 -4 -66 -28 -140 -55 -74
-26 -143 -53 -155 -60 -11 -7 -76 -32 -145 -56 -69 -24 -127 -46 -130 -50 -3
-3 -59 -26 -125 -49 -66 -24 -129 -49 -140 -56 -11 -6 -76 -31 -145 -55 -69
-24 -127 -46 -130 -50 -3 -3 -59 -26 -125 -49 -66 -24 -129 -49 -140 -56 -11
-6 -76 -31 -145 -55 -69 -24 -127 -46 -130 -50 -3 -3 -63 -27 -134 -53 -71
-25 -134 -50 -140 -55 -6 -5 -67 -28 -136 -52 -69 -23 -127 -46 -130 -50 -3
-3 -66 -28 -140 -55 -74 -26 -137 -51 -140 -55 -3 -3 -61 -26 -130 -50 -69
-23 -127 -46 -130 -50 -3 -3 -63 -28 -135 -53 -71 -26 -152 -58 -180 -70 -27
-13 -88 -36 -135 -51 -47 -15 -87 -31 -90 -35 -3 -4 -63 -29 -135 -54 -71 -26
-152 -58 -180 -70 -27 -13 -88 -36 -135 -51 -47 -15 -98 -35 -115 -45 -16 -9
-79 -34 -140 -55 -60 -22 -112 -42 -115 -45 -3 -4 -66 -28 -140 -55 -74 -27
-144 -54 -155 -60 -11 -7 -69 -30 -130 -51 -60 -21 -112 -41 -115 -44 -3 -4
-66 -28 -140 -55 -74 -26 -140 -52 -147 -57 -6 -5 -69 -29 -139 -54 -71 -25
-133 -49 -139 -53 -5 -5 -64 -28 -130 -51 -66 -24 -129 -49 -140 -56 -11 -6
-76 -31 -145 -55 -69 -24 -127 -46 -130 -50 -3 -3 -59 -26 -125 -50 -66 -23
-129 -48 -140 -55 -11 -7 -75 -31 -142 -54 -68 -24 -121 -46 -118 -49 2 -4 24
-61 50 -126 91 -237 86 -227 115 -220 14 3 45 16 70 29 25 12 95 40 155 61 61
21 112 42 115 45 3 4 59 26 125 49 66 23 136 50 155 60 19 10 85 35 145 56 61
21 112 42 115 45 3 4 65 28 137 53 73 26 143 53 155 60 13 8 73 32 133 53 61
21 112 41 115 45 3 3 66 27 139 53 74 26 140 51 146 56 6 5 63 27 126 50 62
22 125 46 139 54 14 8 79 33 144 55 66 23 125 46 131 51 6 5 70 30 140 55 71
25 134 50 140 55 5 4 63 26 127 49 64 22 127 46 140 54 13 8 79 34 148 58 69
23 127 46 130 50 3 3 59 26 125 49 66 24 129 49 140 55 11 7 76 32 145 56 69
23 127 46 130 50 3 3 59 26 125 49 66 24 129 49 140 56 11 6 76 31 145 55 69
24 127 46 130 50 3 3 66 28 140 55 74 26 137 51 140 55 3 3 61 26 130 50 69
23 127 46 130 50 3 4 66 28 140 55 74 26 137 51 140 55 3 3 61 26 130 50 69
23 127 46 130 50 3 4 66 28 140 55 74 26 137 51 140 55 3 3 65 27 137 52 73
26 143 53 155 60 13 8 73 32 133 53 61 21 112 41 115 45 3 3 65 27 137 52 73
26 143 53 155 60 13 8 73 32 133 53 61 21 112 41 115 44 3 4 66 28 140 55 74
26 143 53 155 60 11 7 70 30 130 51 61 21 112 41 115 44 3 4 66 28 140 55 74
26 140 51 147 57 6 5 69 29 139 54 71 25 133 49 139 53 5 5 64 28 130 51 66
24 129 49 140 56 11 6 76 31 145 55 69 24 127 46 130 50 3 3 59 26 125 49 66
24 129 49 140 56 11 6 76 31 145 55 69 24 127 46 130 50 3 3 33 16 67 29 l62
22 -18 47 c-95 251 -117 301 -131 300 -8 -1 -60 -17 -115 -37z"/>
<path d="M9805 8562 c-71 -25 -132 -49 -135 -53 -3 -4 -57 -26 -120 -48 -63
-22 -126 -47 -140 -55 -14 -7 -81 -33 -150 -57 -69 -23 -127 -46 -130 -50 -6
-8 -254 -99 -270 -99 -5 0 -10 -4 -10 -8 0 -5 -51 -26 -112 -47 -62 -21 -133
-49 -158 -61 -25 -12 -94 -39 -155 -60 -60 -21 -112 -41 -115 -45 -3 -4 -58
-25 -122 -48 -64 -22 -127 -46 -140 -54 -13 -8 -79 -34 -148 -58 -69 -23 -127
-46 -130 -50 -3 -4 -59 -26 -125 -49 -66 -23 -129 -47 -140 -54 -11 -7 -76
-32 -145 -56 -69 -24 -127 -47 -130 -50 -3 -4 -66 -28 -140 -55 -74 -27 -137
-51 -140 -55 -3 -4 -61 -26 -130 -50 -69 -24 -134 -49 -145 -56 -11 -7 -74
-32 -140 -55 -66 -23 -122 -45 -125 -49 -3 -4 -61 -26 -130 -50 -69 -24 -127
-47 -130 -51 -3 -3 -66 -28 -140 -55 -74 -26 -137 -51 -140 -54 -3 -4 -66 -28
-140 -54 -74 -26 -139 -51 -145 -56 -6 -5 -62 -27 -125 -50 -63 -22 -133 -49
-155 -60 -22 -10 -87 -35 -144 -55 -58 -19 -110 -40 -116 -45 -6 -5 -62 -27
-125 -49 -63 -22 -126 -47 -140 -55 -14 -8 -79 -33 -144 -55 -66 -23 -125 -46
-131 -51 -6 -5 -70 -30 -140 -55 -71 -25 -134 -50 -140 -55 -5 -4 -63 -26
-127 -49 -64 -22 -127 -46 -140 -54 -13 -8 -79 -34 -148 -58 -69 -23 -127 -46
-130 -50 -3 -4 -59 -26 -124 -49 -66 -23 -129 -48 -140 -55 -12 -7 -77 -32
-146 -56 -69 -23 -127 -46 -130 -50 -3 -3 -59 -26 -125 -49 -66 -24 -129 -49
-140 -55 -11 -7 -76 -32 -145 -56 -69 -23 -127 -46 -130 -50 -3 -3 -66 -28
-140 -55 -74 -26 -137 -51 -140 -55 -3 -3 -61 -26 -130 -50 -69 -23 -127 -46
-130 -50 -3 -4 -66 -28 -140 -55 -74 -26 -137 -51 -140 -55 -3 -3 -59 -25
-125 -48 -66 -23 -136 -50 -155 -60 -19 -10 -84 -35 -145 -56 -60 -21 -112
-42 -115 -45 -3 -4 -56 -25 -117 -46 -100 -35 -112 -41 -107 -59 9 -27 92
-245 104 -270 5 -11 14 -32 19 -47 10 -25 13 -27 38 -17 15 5 32 14 38 18 5 5
64 28 130 51 66 24 129 49 140 56 11 6 76 31 145 55 69 24 127 46 130 50 3 3
59 26 125 49 66 24 129 49 140 56 11 6 76 31 145 55 69 24 127 46 130 50 3 3
63 28 135 53 71 26 134 51 140 56 5 4 66 27 135 51 69 23 127 46 130 50 3 4
66 28 140 55 74 26 137 51 140 55 3 3 61 26 130 50 69 23 127 46 130 50 3 4
66 28 140 55 74 26 137 51 140 55 3 3 61 26 130 50 69 23 127 46 130 50 3 3
64 28 135 53 72 26 148 56 170 66 22 11 87 36 145 55 58 20 110 41 116 46 6 5
63 27 125 49 63 22 125 46 139 54 14 7 79 33 145 56 66 24 122 46 125 50 3 4
61 26 130 50 69 24 127 47 130 50 3 4 66 28 140 55 74 27 137 51 140 55 3 4
66 28 140 54 74 26 139 51 145 56 6 5 62 27 125 49 63 22 126 47 140 55 14 7
81 33 150 57 69 23 127 46 130 50 3 4 57 26 120 48 63 22 126 47 140 55 14 7
81 33 150 57 69 23 127 46 130 50 3 4 57 26 120 48 63 22 126 47 140 55 14 7
81 33 150 57 69 24 126 46 128 50 2 4 65 29 140 55 75 26 139 51 142 55 3 4
61 27 130 50 69 23 127 46 130 50 6 8 254 99 270 99 5 0 10 4 10 8 0 5 51 26
113 47 61 21 132 49 157 61 25 12 95 39 155 60 61 21 112 41 115 45 3 3 66 28
140 54 74 27 137 51 140 55 3 4 61 26 130 50 69 24 127 47 130 51 3 3 66 28
140 54 74 27 137 51 140 55 3 4 61 26 130 50 69 24 139 52 155 61 17 9 56 25
88 35 31 10 57 20 57 23 0 7 -36 105 -54 146 -7 17 -28 69 -46 118 -19 48 -36
87 -39 86 -3 0 -64 -21 -136 -47z"/>
<path d="M10239 7772 c-2 -5 -64 -30 -136 -55 -73 -26 -143 -53 -155 -60 -13
-8 -72 -32 -133 -53 -60 -21 -112 -41 -115 -45 -3 -3 -65 -27 -137 -52 -73
-26 -143 -53 -155 -61 -13 -7 -72 -31 -133 -52 -60 -21 -112 -41 -115 -44 -3
-4 -66 -28 -140 -55 -74 -26 -140 -51 -146 -56 -6 -5 -63 -27 -125 -49 -63
-22 -125 -46 -139 -54 -14 -7 -79 -33 -145 -56 -66 -24 -125 -47 -132 -52 -6
-5 -69 -29 -139 -54 -71 -25 -133 -49 -139 -53 -5 -5 -64 -28 -130 -51 -66
-24 -129 -49 -140 -56 -11 -6 -76 -31 -145 -55 -69 -24 -127 -46 -130 -50 -3
-3 -59 -26 -125 -49 -66 -24 -129 -49 -140 -56 -11 -6 -76 -31 -145 -55 -69
-24 -127 -46 -130 -50 -3 -3 -63 -28 -135 -53 -71 -26 -134 -51 -140 -56 -5
-4 -66 -27 -135 -51 -69 -23 -127 -46 -130 -50 -3 -4 -66 -28 -140 -55 -74
-26 -137 -51 -140 -55 -3 -3 -61 -26 -130 -50 -69 -23 -127 -46 -130 -50 -3
-4 -66 -28 -140 -55 -74 -26 -137 -51 -140 -55 -3 -3 -61 -26 -130 -50 -69
-23 -127 -46 -130 -50 -3 -5 -66 -29 -140 -55 -74 -26 -137 -51 -140 -54 -3
-4 -66 -28 -140 -55 -74 -26 -143 -53 -155 -60 -11 -7 -69 -30 -130 -51 -60
-21 -112 -41 -115 -44 -3 -4 -66 -28 -140 -55 -74 -26 -143 -53 -155 -60 -11
-7 -69 -30 -130 -51 -60 -21 -112 -41 -115 -45 -3 -3 -66 -28 -140 -54 -74
-26 -140 -52 -147 -57 -6 -5 -69 -29 -139 -54 -71 -25 -133 -49 -139 -54 -6
-5 -62 -27 -125 -49 -63 -22 -126 -47 -140 -55 -14 -7 -81 -33 -150 -57 -69
-23 -127 -46 -130 -50 -3 -3 -59 -26 -125 -50 -66 -23 -129 -48 -140 -55 -11
-7 -76 -31 -145 -55 -69 -24 -127 -46 -130 -50 -3 -3 -59 -26 -125 -50 -66
-23 -129 -48 -140 -55 -11 -7 -76 -31 -145 -55 -69 -24 -127 -46 -130 -50 -3
-4 -66 -28 -140 -55 -74 -26 -137 -51 -140 -54 -3 -4 -43 -21 -90 -38 -75 -27
-85 -33 -83 -54 3 -41 124 -338 138 -338 7 0 15 4 17 9 2 5 64 30 138 56 74
27 144 54 155 60 11 7 70 30 130 51 61 21 112 41 115 45 3 3 66 28 140 55 74
26 144 53 155 60 11 6 70 29 130 50 61 21 112 41 115 45 3 3 66 28 140 54 74
27 140 52 146 57 6 4 63 26 125 48 63 22 130 49 149 59 19 10 85 35 145 56 61
21 112 42 115 45 3 4 66 28 139 54 74 26 140 51 146 56 6 5 65 28 130 51 66
23 122 46 125 49 3 4 65 28 137 53 73 26 143 53 155 60 13 8 73 32 133 53 61
21 112 41 115 45 3 3 68 28 145 55 77 26 142 51 145 56 3 4 62 27 130 52 69
24 143 53 165 64 22 10 85 34 140 53 55 18 101 37 103 40 2 4 65 29 140 55 75
26 139 51 142 55 3 4 59 26 124 49 66 23 129 48 140 55 12 7 77 32 146 56 69
23 127 46 130 50 3 3 59 26 125 49 66 24 129 49 140 55 11 7 76 32 145 56 69
23 127 46 130 50 3 3 66 28 140 55 74 26 137 51 140 54 3 4 61 26 130 50 69
24 127 47 130 51 3 3 66 28 140 55 74 26 144 53 155 60 11 6 70 29 130 50 61
21 112 41 115 45 3 3 64 28 135 53 72 26 153 58 180 70 28 13 88 36 135 51 47
15 99 35 115 45 17 9 80 34 140 55 61 22 112 42 115 46 3 3 65 27 137 52 73
26 143 53 155 60 13 8 73 32 133 53 61 21 112 41 115 45 3 3 65 27 137 52 73
26 143 53 155 60 13 8 73 32 133 53 61 21 112 41 115 44 3 4 66 28 140 55 74
26 143 53 155 60 11 7 76 32 145 56 69 24 127 46 130 50 3 4 46 21 96 39 l91
31 -23 62 c-76 204 -114 292 -127 295 -8 2 -17 -1 -18 -6z"/>
<path d="M10555 6938 c-16 -6 -32 -14 -35 -19 -3 -4 -61 -27 -130 -50 -69 -23
-126 -46 -128 -50 -2 -4 -65 -29 -140 -55 -75 -26 -139 -51 -142 -55 -3 -4
-59 -26 -124 -49 -66 -23 -129 -48 -140 -55 -12 -7 -77 -32 -146 -56 -69 -23
-127 -46 -130 -50 -3 -4 -59 -26 -125 -49 -66 -23 -129 -47 -140 -54 -11 -7
-76 -32 -145 -56 -69 -24 -127 -47 -130 -51 -3 -3 -66 -28 -140 -55 -74 -26
-137 -51 -140 -54 -3 -4 -61 -26 -130 -50 -69 -24 -127 -47 -130 -51 -3 -3
-66 -28 -140 -55 -74 -26 -137 -51 -140 -54 -3 -4 -61 -26 -130 -50 -69 -24
-127 -47 -130 -51 -3 -3 -66 -28 -140 -55 -74 -26 -144 -53 -155 -60 -11 -7
-74 -31 -139 -53 -66 -23 -125 -46 -131 -51 -6 -5 -63 -27 -126 -50 -62 -22
-125 -46 -139 -54 -14 -8 -79 -33 -144 -55 -66 -23 -125 -46 -131 -51 -6 -5
-63 -27 -126 -50 -62 -22 -125 -46 -139 -54 -14 -8 -79 -33 -144 -55 -66 -23
-125 -46 -131 -51 -6 -5 -70 -30 -140 -55 -71 -25 -134 -50 -140 -54 -5 -5
-64 -28 -129 -51 -66 -23 -129 -48 -140 -55 -12 -7 -77 -32 -146 -56 -69 -23
-127 -46 -130 -50 -3 -4 -59 -26 -124 -49 -66 -23 -129 -48 -140 -55 -12 -7
-77 -32 -146 -56 -69 -23 -127 -46 -130 -50 -3 -3 -59 -26 -125 -49 -66 -24
-129 -49 -140 -56 -11 -6 -76 -31 -145 -55 -69 -24 -127 -46 -130 -50 -3 -3
-66 -28 -140 -55 -74 -26 -137 -51 -140 -55 -3 -3 -61 -26 -130 -50 -69 -23
-127 -46 -130 -50 -3 -3 -66 -28 -140 -55 -74 -26 -137 -51 -140 -55 -3 -3
-61 -26 -130 -50 -69 -23 -127 -46 -130 -50 -3 -4 -66 -28 -140 -55 -74 -26
-137 -51 -140 -55 -3 -3 -66 -27 -139 -53 -74 -26 -140 -51 -146 -56 -6 -5
-63 -27 -126 -50 -62 -22 -125 -46 -139 -54 -14 -8 -79 -33 -144 -55 -66 -23
-125 -46 -131 -51 -6 -5 -63 -28 -126 -50 -62 -23 -136 -52 -164 -65 -27 -12
-69 -29 -93 -36 -36 -10 -41 -15 -36 -33 9 -30 124 -328 128 -333 3 -4 260 88
271 97 6 5 63 27 126 50 62 22 125 46 139 54 14 8 79 33 145 56 66 23 125 46
131 51 6 5 69 29 139 54 71 25 134 50 140 54 5 5 64 28 130 51 66 24 129 49
140 56 11 6 76 31 145 55 69 24 127 46 130 50 3 3 59 26 125 49 66 24 129 49
140 56 11 6 76 31 145 55 69 24 127 46 130 50 3 3 63 28 135 53 71 26 134 51
140 56 5 4 66 27 135 51 69 23 127 46 130 50 3 4 66 28 140 55 74 26 137 51
140 55 3 3 61 26 130 50 69 23 127 46 130 50 3 4 66 28 140 55 74 26 137 51
140 55 3 3 61 26 130 50 69 23 127 46 130 50 3 4 66 28 140 55 74 26 137 51
140 55 3 3 66 27 140 54 74 26 140 51 146 56 5 4 62 26 125 49 62 22 125 46
139 54 14 8 79 33 145 56 66 23 125 46 131 51 5 4 62 26 125 49 62 22 125 46
139 54 14 7 79 33 145 56 66 24 125 47 132 52 6 5 69 29 139 54 71 25 133 49
139 53 5 5 64 28 130 51 66 24 129 49 140 56 11 6 76 31 145 55 69 24 127 46
130 50 3 3 59 26 125 50 66 23 129 48 140 55 11 7 76 31 145 55 69 24 127 46
130 50 3 3 59 26 125 50 66 23 129 48 140 55 11 7 76 31 145 55 69 24 127 46
130 50 3 5 66 29 140 55 74 26 137 51 140 55 3 3 61 26 130 50 69 23 127 46
130 50 3 5 66 29 140 55 74 26 137 51 140 55 3 3 61 26 130 50 69 23 127 46
130 50 6 8 254 99 270 99 5 0 10 4 10 8 0 4 51 25 113 47 61 21 114 40 116 41
5 4 -136 365 -142 363 -1 0 -15 -5 -32 -11z"/>
<path d="M10880 6103 c-8 -3 -31 -13 -50 -23 -20 -9 -90 -37 -155 -60 -66 -24
-125 -47 -131 -52 -6 -4 -63 -26 -125 -48 -63 -22 -125 -46 -139 -54 -14 -7
-79 -33 -145 -56 -66 -24 -125 -47 -132 -52 -6 -5 -69 -29 -139 -54 -71 -25
-133 -49 -139 -53 -5 -5 -64 -28 -130 -51 -66 -24 -129 -49 -140 -56 -11 -6
-76 -31 -145 -55 -69 -24 -127 -46 -130 -50 -3 -3 -59 -26 -125 -50 -66 -23
-129 -48 -140 -55 -11 -7 -76 -31 -145 -55 -69 -24 -127 -46 -130 -50 -3 -4
-63 -28 -134 -54 -71 -25 -134 -49 -140 -54 -6 -5 -67 -28 -136 -52 -69 -23
-127 -46 -130 -50 -3 -5 -66 -29 -140 -55 -74 -26 -137 -51 -140 -55 -3 -3
-61 -26 -130 -50 -69 -24 -126 -46 -128 -50 -2 -4 -65 -29 -140 -55 -75 -26
-139 -51 -142 -55 -3 -3 -59 -25 -125 -48 -66 -23 -136 -50 -155 -60 -19 -10
-84 -36 -145 -57 -60 -21 -112 -41 -115 -45 -3 -4 -65 -28 -139 -54 -74 -25
-143 -52 -155 -60 -12 -7 -70 -30 -131 -51 -60 -21 -112 -41 -115 -45 -3 -3
-66 -28 -140 -54 -74 -27 -144 -54 -155 -60 -11 -7 -69 -30 -130 -51 -60 -21
-112 -41 -115 -45 -3 -3 -66 -28 -140 -54 -74 -26 -140 -52 -147 -57 -6 -5
-69 -29 -139 -54 -71 -25 -133 -49 -139 -53 -5 -5 -64 -28 -130 -52 -66 -23
-129 -48 -140 -55 -11 -7 -74 -31 -139 -53 -66 -23 -124 -45 -130 -50 -6 -5
-65 -28 -131 -52 -66 -23 -122 -46 -125 -49 -3 -4 -68 -29 -145 -55 -77 -27
-142 -52 -145 -56 -3 -4 -59 -27 -125 -50 -66 -23 -122 -45 -125 -49 -3 -4
-68 -29 -145 -55 -77 -27 -142 -52 -145 -56 -3 -5 -66 -29 -140 -55 -74 -26
-137 -51 -140 -55 -6 -8 -232 -89 -249 -89 -6 0 -11 -4 -11 -9 0 -5 -62 -30
-137 -57 -76 -26 -140 -51 -143 -55 -3 -4 -59 -26 -124 -49 -66 -23 -129 -48
-140 -55 -12 -7 -77 -32 -146 -56 -69 -23 -127 -46 -130 -50 -3 -3 -33 -16
-67 -29 -57 -21 -61 -24 -53 -45 5 -13 34 -87 64 -164 31 -77 56 -145 56 -150
0 -6 5 -11 10 -11 18 0 225 73 230 81 3 5 66 29 140 55 74 26 137 51 140 55 3
3 61 26 130 50 69 23 127 46 130 50 3 5 66 29 140 55 74 26 137 51 140 54 3 4
66 28 140 55 74 26 137 51 140 55 3 4 61 26 130 50 69 24 127 47 130 50 3 4
66 28 140 55 74 27 144 54 155 61 11 6 70 29 130 50 61 21 112 41 115 45 3 3
66 28 140 55 74 26 144 53 155 60 11 6 70 29 130 50 61 21 112 41 115 45 3 3
66 28 140 54 74 27 140 52 147 57 6 5 69 29 139 54 71 25 133 49 139 54 6 5
62 27 125 50 63 22 133 49 155 60 22 10 87 35 144 55 58 19 110 40 116 45 6 5
63 27 126 50 62 22 125 46 139 54 14 8 79 33 144 55 66 23 125 46 131 51 6 5
68 30 136 54 68 25 142 53 164 64 22 11 85 34 140 52 55 18 101 36 103 41 2 4
65 29 140 55 75 26 139 51 142 55 3 3 61 26 130 50 69 24 126 46 128 50 2 4
65 29 140 55 75 26 139 51 142 55 3 4 59 26 124 49 66 23 129 48 140 55 12 7
77 32 146 56 69 23 127 46 130 50 3 3 66 28 140 55 74 26 137 51 140 54 3 4
61 26 130 50 69 24 127 47 130 51 3 3 66 28 140 55 74 26 137 51 140 54 3 4
61 26 130 50 69 24 127 47 130 51 3 3 66 28 140 54 74 27 140 52 147 57 6 5
69 29 139 54 71 25 133 49 139 54 6 5 62 27 125 49 63 22 126 47 140 55 14 8
79 33 144 55 66 23 125 46 131 51 6 5 63 28 126 50 62 23 137 51 164 64 28 13
94 38 147 55 l97 32 -20 52 c-12 29 -36 93 -56 142 -67 174 -65 171 -103 158z"/>
<path d="M11175 5257 c-33 -11 -62 -23 -65 -27 -3 -4 -63 -28 -134 -54 -71
-25 -134 -50 -140 -55 -6 -4 -67 -28 -136 -51 -69 -24 -127 -47 -130 -51 -3
-3 -66 -28 -140 -55 -74 -26 -144 -53 -155 -60 -11 -6 -69 -29 -130 -50 -60
-21 -112 -41 -115 -45 -3 -3 -59 -26 -125 -49 -66 -24 -147 -55 -180 -70 -33
-15 -98 -40 -145 -55 -47 -15 -87 -31 -90 -35 -3 -4 -63 -29 -135 -54 -71 -26
-152 -58 -180 -70 -27 -13 -88 -36 -135 -51 -47 -15 -98 -35 -115 -45 -16 -9
-79 -34 -140 -55 -60 -22 -112 -42 -115 -46 -3 -3 -65 -27 -137 -52 -73 -26
-143 -53 -155 -60 -13 -8 -72 -32 -133 -53 -60 -21 -112 -41 -115 -45 -3 -3
-66 -27 -139 -53 -74 -26 -140 -51 -146 -56 -7 -5 -70 -30 -140 -55 -71 -25
-134 -50 -140 -54 -5 -5 -64 -28 -129 -51 -66 -23 -129 -48 -140 -55 -12 -7
-77 -32 -146 -56 -69 -24 -127 -46 -130 -50 -3 -3 -59 -26 -125 -49 -66 -24
-129 -49 -140 -56 -11 -6 -76 -31 -145 -55 -69 -24 -127 -46 -130 -50 -3 -3
-59 -26 -125 -49 -66 -24 -129 -49 -140 -56 -11 -6 -76 -31 -145 -55 -69 -24
-127 -46 -130 -50 -3 -3 -66 -28 -140 -55 -74 -26 -137 -51 -140 -55 -3 -3
-61 -26 -130 -50 -69 -23 -127 -46 -130 -50 -3 -4 -66 -28 -140 -55 -74 -26
-137 -51 -140 -55 -3 -3 -61 -26 -130 -50 -69 -23 -127 -46 -130 -50 -3 -3
-63 -27 -135 -53 -71 -25 -141 -53 -155 -60 -14 -8 -79 -33 -144 -55 -66 -23
-125 -46 -131 -51 -6 -5 -63 -27 -126 -50 -62 -22 -125 -46 -139 -54 -14 -8
-79 -33 -144 -55 -66 -23 -125 -46 -131 -51 -6 -5 -63 -27 -126 -50 -62 -22
-125 -46 -139 -54 -14 -7 -79 -33 -145 -56 -66 -24 -129 -49 -140 -56 -11 -6
-69 -29 -130 -50 -60 -21 -112 -41 -115 -44 -3 -4 -66 -28 -140 -55 -74 -26
-140 -52 -147 -57 -6 -5 -67 -29 -135 -53 -67 -24 -142 -53 -165 -64 -23 -12
-47 -21 -53 -21 -16 0 -13 -10 34 -132 49 -126 57 -134 147 -142 30 -3 54 -5
54 -6 0 -1 13 -4 30 -6 16 -3 32 -7 34 -10 2 -2 18 5 35 15 17 10 81 35 141
56 61 22 112 42 115 46 3 3 66 27 139 53 74 26 140 51 146 56 6 5 63 27 126
50 62 22 125 46 139 54 14 8 79 33 144 55 66 23 125 46 131 51 6 5 63 27 126
50 62 22 125 46 139 54 14 8 79 33 144 55 66 23 125 46 131 51 6 5 70 30 140
55 71 25 134 50 140 54 5 5 64 28 130 51 66 24 129 49 140 55 11 7 76 32 145
56 69 23 127 46 130 50 3 3 59 26 125 49 66 24 129 49 140 55 11 7 76 32 145
56 69 23 127 46 130 50 3 3 63 27 134 53 71 25 134 50 140 55 6 5 67 28 136
52 69 23 127 46 130 50 3 4 66 28 140 55 74 26 137 51 140 55 3 3 61 26 130
50 69 23 127 46 130 50 3 4 66 28 140 55 74 26 137 51 140 55 3 3 59 25 125
48 66 23 136 50 155 60 19 10 85 35 145 56 61 22 112 42 115 46 3 3 65 27 137
52 73 26 143 53 155 60 13 8 73 32 133 53 61 21 112 41 115 44 3 4 66 28 140
55 74 26 140 51 146 56 6 5 63 27 125 49 63 22 125 46 139 54 14 8 79 33 145
56 66 23 125 46 132 51 6 6 69 30 139 55 71 25 133 49 139 53 5 5 64 28 130
51 66 24 129 49 140 56 11 6 76 31 145 55 69 24 127 46 130 50 3 3 59 26 125
49 66 24 129 49 140 56 11 6 76 31 145 55 69 24 127 46 130 50 3 3 59 26 125
49 66 24 129 49 140 56 11 6 76 31 145 55 69 24 127 46 130 50 3 4 66 28 140
55 74 26 137 51 140 54 3 4 29 15 59 26 45 16 63 31 115 94 34 41 65 80 69 87
4 7 -1 34 -12 60 -11 26 -32 80 -47 118 -14 39 -29 73 -33 76 -3 4 -33 -3 -66
-14z"/>
<path d="M10430 4006 c-63 -22 -117 -43 -120 -47 -3 -4 -63 -28 -134 -54 -71
-25 -134 -49 -140 -54 -6 -5 -67 -28 -136 -52 -69 -23 -127 -46 -130 -50 -6
-8 -254 -99 -270 -99 -5 0 -10 -4 -10 -8 0 -5 -51 -26 -112 -47 -62 -21 -133
-49 -158 -61 -25 -12 -94 -39 -155 -60 -60 -21 -112 -41 -115 -45 -3 -4 -51
-23 -107 -43 -56 -19 -126 -46 -155 -59 -29 -13 -102 -41 -163 -63 -60 -21
-112 -41 -115 -45 -3 -3 -66 -28 -140 -54 -74 -27 -137 -51 -140 -55 -3 -4
-61 -26 -130 -50 -69 -24 -127 -47 -130 -51 -3 -3 -66 -28 -140 -54 -74 -27
-137 -51 -140 -55 -3 -4 -61 -26 -130 -50 -69 -24 -134 -49 -145 -56 -11 -7
-74 -32 -140 -55 -66 -23 -122 -45 -125 -49 -3 -4 -66 -28 -140 -54 -74 -26
-139 -51 -145 -56 -6 -5 -65 -28 -130 -51 -66 -23 -122 -45 -125 -49 -3 -4
-66 -28 -140 -54 -74 -26 -139 -51 -145 -56 -6 -5 -62 -27 -125 -49 -63 -22
-126 -47 -140 -55 -14 -7 -81 -33 -150 -57 -69 -23 -127 -46 -130 -50 -3 -5
-57 -26 -120 -49 -63 -23 -137 -51 -165 -64 -27 -13 -95 -38 -150 -56 -55 -18
-101 -36 -103 -41 -2 -4 -65 -29 -140 -55 -75 -26 -139 -51 -142 -55 -3 -4
-58 -25 -122 -48 -64 -22 -127 -46 -140 -54 -13 -8 -79 -34 -148 -58 -69 -23
-127 -46 -130 -50 -3 -3 -59 -26 -125 -49 -66 -24 -129 -49 -140 -55 -11 -7
-76 -32 -145 -56 -69 -23 -127 -46 -130 -50 -3 -3 -36 -18 -75 -32 -38 -14
-63 -26 -55 -27 8 -1 24 -3 35 -6 11 -2 38 -6 60 -8 22 -3 55 -7 73 -10 17 -3
47 -9 65 -12 17 -3 50 -7 72 -10 22 -2 51 -6 65 -9 14 -3 45 -8 70 -11 25 -3
59 -8 75 -11 71 -13 82 -14 111 -17 17 -2 35 -5 40 -8 26 -13 83 -7 157 18 45
15 84 30 87 34 3 4 66 29 140 56 74 26 137 51 140 55 3 3 66 28 140 53 74 26
137 50 140 55 3 4 61 27 130 51 69 24 127 47 130 50 3 4 66 28 140 55 74 27
137 51 140 55 3 4 61 26 130 50 69 24 127 47 130 51 3 3 66 28 140 54 74 27
144 54 155 60 11 7 70 30 130 51 61 21 112 41 115 45 3 3 66 28 140 54 74 27
140 52 147 57 6 5 69 29 139 54 71 25 133 49 139 54 6 5 62 27 125 49 63 22
126 47 140 55 14 7 81 33 150 57 69 23 127 46 130 50 3 4 57 26 120 48 63 22
126 47 140 55 14 7 81 33 150 57 69 23 127 46 130 50 3 4 64 28 135 54 72 26
135 50 140 55 6 4 66 27 135 51 69 23 127 46 130 50 6 8 254 99 270 99 5 0 10
4 10 8 0 5 51 26 113 47 61 21 132 49 157 61 25 12 95 39 155 60 61 21 112 41
115 45 3 4 58 25 122 48 64 22 127 46 140 54 13 8 79 34 148 58 69 23 127 46
130 50 3 3 22 12 42 19 24 9 50 31 75 64 21 28 45 57 53 66 9 9 29 34 45 55
17 22 35 45 40 51 6 6 24 28 40 49 17 21 65 81 108 134 43 53 85 105 94 116 9
11 23 28 31 38 8 9 13 19 11 20 -2 2 -56 -14 -119 -37z"/>
<path d="M9341 2624 c-52 -19 -99 -38 -105 -43 -6 -5 -65 -28 -131 -51 -66
-24 -129 -49 -140 -56 -11 -6 -76 -31 -145 -55 -69 -24 -127 -46 -130 -50 -3
-3 -59 -26 -125 -49 -66 -24 -129 -49 -140 -56 -11 -6 -76 -31 -145 -55 -69
-24 -127 -46 -130 -50 -3 -3 -59 -26 -125 -49 -66 -24 -129 -49 -140 -56 -11
-6 -76 -31 -145 -55 -69 -24 -127 -46 -130 -50 -3 -4 -66 -28 -140 -55 -74
-26 -137 -51 -140 -55 -3 -3 -61 -26 -130 -50 -69 -23 -127 -46 -130 -50 -3
-4 -66 -28 -140 -55 -74 -26 -137 -51 -140 -55 -3 -3 -61 -26 -130 -50 -69
-23 -127 -46 -130 -50 -3 -4 -66 -28 -140 -55 -74 -26 -137 -51 -140 -55 -3
-3 -66 -28 -140 -53 -74 -26 -137 -50 -140 -55 -3 -4 -61 -27 -130 -51 -69
-24 -127 -47 -130 -50 -3 -4 -68 -29 -145 -57 -127 -45 -159 -63 -123 -69 69
-11 108 -17 133 -19 17 -2 44 -6 60 -9 48 -8 87 -14 135 -20 25 -3 56 -9 70
-12 14 -3 41 -7 60 -9 19 -2 35 -4 35 -5 0 -2 31 -7 85 -15 40 -6 88 -13 130
-20 17 -2 73 15 80 25 3 4 59 27 124 50 66 23 129 48 140 55 12 7 77 32 146
56 69 23 127 46 130 50 3 3 59 26 125 49 66 24 129 49 140 55 11 7 76 32 145
56 69 23 127 46 130 50 3 3 63 27 134 53 71 25 134 50 140 55 6 4 67 28 136
51 69 24 127 47 130 51 3 3 66 28 140 55 74 26 144 53 155 60 11 6 70 29 130
50 61 21 112 41 115 45 3 4 66 28 140 55 74 26 137 51 140 55 3 3 61 26 130
50 69 24 127 47 128 51 2 4 10 8 17 8 7 0 25 15 40 33 14 17 34 41 44 52 9 11
33 40 52 64 18 25 41 52 49 61 8 9 26 31 40 50 14 18 49 63 78 99 30 36 66 81
80 100 15 18 32 38 37 45 20 23 76 96 73 95 -2 -1 -45 -17 -97 -35z"/>
<path d="M8240 1236 c-30 -12 -64 -26 -75 -33 -12 -6 -74 -30 -140 -52 -65
-23 -124 -46 -130 -51 -6 -5 -63 -28 -126 -50 -62 -23 -136 -51 -164 -64 -27
-13 -88 -36 -135 -51 -47 -15 -98 -35 -115 -45 -16 -9 -60 -28 -97 -40 -64
-22 -85 -36 -55 -37 6 0 30 -3 52 -7 22 -4 58 -9 80 -11 22 -3 51 -7 65 -10
34 -7 100 -17 130 -20 14 -2 25 -4 25 -5 0 -2 11 -3 25 -5 14 -1 39 -4 55 -8
17 -3 48 -9 70 -12 23 -3 52 -8 65 -10 105 -21 104 -21 151 40 24 31 59 73 77
93 18 20 41 49 50 65 9 15 20 27 24 27 4 0 8 7 8 15 0 8 4 15 8 15 4 0 26 24
47 52 22 29 47 60 55 68 8 9 26 31 40 49 14 19 37 48 52 65 46 52 41 55 -42
22z"/>
</g>
</svg>
